<svg width="43" height="43" viewBox="0 0 43 43" fill="none" xmlns="http://www.w3.org/2000/svg">
<path d="M25.3366 23.2066C26.8502 22.4835 28.1322 21.3528 29.0387 19.9413H31.3768C31.8929 19.911 32.376 19.6778 32.7209 19.2927C33.0657 18.9075 33.2443 18.4017 33.2177 17.8854V13.0546C33.2186 12.7999 33.173 12.5472 33.0834 12.3088V12.2954C32.3978 9.93058 31.2056 7.74337 29.5896 5.88571L29.5023 5.78492C28.4436 4.61181 27.1284 3.69898 25.6591 3.11758C24.1316 2.52785 22.4959 2.27074 20.8611 2.36343C19.2263 2.45612 17.6301 2.89647 16.179 3.65508C15.1743 4.21267 14.2685 4.93229 13.4982 5.78492L13.4109 5.88571C11.7949 7.74337 10.6027 9.93058 9.91711 12.2954V12.3088C9.82744 12.5472 9.78191 12.7999 9.78273 13.0546V17.8854C9.75613 18.4017 9.93473 18.9075 10.2796 19.2927C10.6244 19.6778 11.1076 19.911 11.6237 19.9413H13.9618C14.8683 21.3528 16.1503 22.4835 17.6638 23.2066C14.7748 23.9762 12.2201 25.677 10.3957 28.0456C8.57124 30.4142 7.57885 33.3184 7.57227 36.3082V39.9766C7.57227 40.1548 7.64305 40.3257 7.76905 40.4517C7.89505 40.5777 8.06595 40.6485 8.24414 40.6485H34.7563C34.9345 40.6485 35.1054 40.5777 35.2314 40.4517C35.3574 40.3257 35.4282 40.1548 35.4282 39.9766V36.3082C35.4216 33.3184 34.4292 30.4142 32.6048 28.0456C30.7804 25.677 28.2257 23.9762 25.3366 23.2066ZM31.874 13.0546V17.8854C31.874 18.2616 31.6388 18.5976 31.3768 18.5976H29.7576C29.8718 18.3154 29.9793 18.0265 30.0666 17.7309C30.0666 17.7241 30.0666 17.7241 30.0734 17.7174C30.606 15.9617 30.5825 14.0843 30.0062 12.3424H31.3768C31.6388 12.3424 31.874 12.6784 31.874 13.0546ZM11.6237 18.5976C11.3616 18.5976 11.1265 18.2616 11.1265 17.8854V13.0546C11.1265 12.6784 11.3616 12.3424 11.6237 12.3424H12.9943C12.3178 14.3889 12.4061 16.6112 13.2429 18.5976H11.6237ZM11.7984 10.9987C12.4333 9.45891 13.3162 8.03357 14.412 6.7793L14.4926 6.69196C15.1609 5.94548 15.9516 5.31837 16.8307 4.83758C18.1098 4.17885 19.5132 3.79656 20.9497 3.71553C22.3861 3.6345 23.8236 3.85656 25.1687 4.36727C26.4473 4.87203 27.5907 5.668 28.5079 6.69196L28.5885 6.7793C29.6843 8.03357 30.5672 9.45891 31.2021 10.9987H29.4418C28.6879 9.54298 27.5485 8.3225 26.1479 7.47059C24.7473 6.61867 23.1395 6.1681 21.5002 6.1681C19.8609 6.1681 18.2531 6.61867 16.8526 7.47059C15.452 8.3225 14.3125 9.54298 13.5587 10.9987H11.7984ZM13.8879 15.124C13.8866 14.0525 14.1116 12.9929 14.548 12.0144C14.9844 11.0359 15.6225 10.1605 16.4205 9.44551C17.2185 8.73054 18.1584 8.19208 19.1788 7.86534C20.1992 7.5386 21.2771 7.43095 22.342 7.54943C23.4069 7.66791 24.4347 8.00984 25.3583 8.55287C26.282 9.0959 27.0806 9.8278 27.7019 10.7007C28.3232 11.5736 28.7533 12.5678 28.964 13.6183C29.1746 14.6688 29.1612 15.752 28.9245 16.797H26.6804C26.5425 16.4044 26.2862 16.0643 25.9469 15.8236C25.6075 15.5829 25.2018 15.4535 24.7857 15.4532H22.7701C22.2355 15.4532 21.7228 15.6656 21.3448 16.0436C20.9668 16.4216 20.7545 16.9343 20.7545 17.4688C20.7545 18.0034 20.9668 18.5161 21.3448 18.8941C21.7228 19.2721 22.2355 19.4845 22.7701 19.4845H24.7857C25.2018 19.4842 25.6075 19.3547 25.9469 19.1141C26.2862 18.8734 26.5425 18.5333 26.6804 18.1407H28.4877C27.7936 19.7485 26.5662 21.0678 25.0127 21.876C23.4591 22.6843 21.6743 22.9322 19.9593 22.5778C18.2443 22.2234 16.7039 21.2885 15.5979 19.9307C14.4919 18.5729 13.888 16.8752 13.8879 15.124ZM25.4576 17.4621V17.4755C25.4572 17.5634 25.4396 17.6502 25.4056 17.7312C25.3716 17.8122 25.322 17.8857 25.2596 17.9475C25.1972 18.0093 25.1232 18.0581 25.0419 18.0913C24.9606 18.1244 24.8735 18.1412 24.7857 18.1407H22.7701C22.5919 18.1407 22.421 18.0699 22.295 17.9439C22.169 17.8179 22.0982 17.647 22.0982 17.4688C22.0982 17.2906 22.169 17.1197 22.295 16.9937C22.421 16.8677 22.5919 16.797 22.7701 16.797H24.7857C24.8735 16.7964 24.9606 16.8132 25.0419 16.8464C25.1232 16.8795 25.1972 16.9284 25.2596 16.9902C25.322 17.052 25.3716 17.1255 25.4056 17.2064C25.4396 17.2874 25.4572 17.3743 25.4576 17.4621ZM34.0845 39.3048H8.91602V36.3082C8.92099 33.0666 10.2109 29.9593 12.503 27.6671C14.7952 25.375 17.9026 24.0851 21.1441 24.0801H21.8563C25.0979 24.0851 28.2053 25.375 30.4974 27.6671C32.7896 29.9593 34.0795 33.0666 34.0845 36.3082V39.3048Z" fill="black"/>
</svg>
