<svg width="37" height="37" viewBox="0 0 37 37" fill="none" xmlns="http://www.w3.org/2000/svg">
<path d="M34.5949 17.9452C34.2619 17.1682 33.8919 16.4282 33.4849 15.7252C31.5609 12.5062 28.5269 8.84318 25.4189 5.95718C24.0129 4.62518 22.4589 3.44118 20.8309 2.36818C20.1649 1.96118 19.4619 1.59118 18.7219 1.29518C18.1299 1.03618 17.4639 0.925184 16.7979 0.888184C16.2429 0.888184 15.7249 1.03618 15.2809 1.29518C14.9109 1.55418 14.5779 1.92418 14.3559 2.33118C14.1709 2.70118 13.9859 3.03418 13.8379 3.44118C13.4679 4.36618 13.2829 5.32818 13.2829 6.32718C13.2829 6.95618 13.3569 7.58518 13.4679 8.21418C13.5789 8.73218 13.6899 9.17618 13.7269 9.39818C13.8009 9.69418 13.8379 9.99018 13.8379 10.3232C13.8379 11.3222 13.5049 12.6172 12.5429 14.3192C11.6179 15.9102 10.1009 17.8342 7.73294 20.1652C7.62194 20.1652 7.54794 20.1652 7.47394 20.2022C6.51194 20.6462 5.58694 21.2382 4.77294 21.9782C4.06994 22.5702 3.47794 23.2732 2.99694 24.0502C2.44194 24.9382 2.10894 25.9372 1.99794 27.0102C1.99794 27.1582 1.96094 27.4172 1.96094 27.7502C1.96094 28.3052 2.03494 28.8602 2.18294 29.4152C2.58994 31.0062 3.77394 32.3012 5.32794 32.8932C6.14194 33.1892 6.99294 33.3372 7.84394 33.3372C8.73194 33.3372 9.65694 33.1892 10.5079 32.9302C11.2479 32.6712 11.9139 32.3382 12.5429 31.8572C14.8739 32.5972 17.0569 33.8552 18.8329 35.5572C18.9439 35.6682 19.0919 35.7792 19.2399 35.8902C19.4249 36.0382 19.6469 36.1122 19.9059 36.1122H19.9429C20.0909 36.1122 20.2759 36.0752 20.4239 36.0012C20.5349 35.9642 20.6459 35.8902 20.7569 35.8532C21.4969 35.4462 22.2369 35.0022 22.9399 34.4842C23.1989 34.2992 23.4579 34.1142 23.6799 33.8922C23.9389 33.6332 24.1239 33.3372 24.2349 33.0042C24.2719 32.8192 24.3089 32.6712 24.3089 32.4862C24.3089 31.9682 24.1239 31.4872 23.7909 31.0802C23.4209 30.6362 22.9399 30.2662 22.4219 30.0072C20.4239 28.9342 18.2039 28.3422 15.9469 28.3422C15.7619 28.3422 15.5769 28.3422 15.3919 28.3422C18.7219 25.3822 21.5339 24.6422 22.8659 24.3832C24.7899 24.0132 25.9739 23.7912 27.0469 23.7912C27.4909 23.7912 27.9349 23.8282 28.3419 23.9022C29.0819 24.0502 29.8219 24.1612 30.5619 24.1982C31.1169 24.1982 31.6349 24.1242 32.1529 23.9392C32.5599 23.7912 32.9299 23.6062 33.2999 23.4212C33.9289 23.0512 34.4469 22.5332 34.8169 21.8672C35.0759 21.3492 35.2239 20.7942 35.2239 20.2022C35.0759 19.4622 34.8909 18.6852 34.5949 17.9452ZM10.1009 31.8942C9.36094 32.1532 8.58394 32.2642 7.76994 32.2642C7.02994 32.2642 6.32694 32.1532 5.62394 31.8942C4.95794 31.6352 4.36594 31.2282 3.88494 30.6732C3.51494 30.2292 3.25594 29.7112 3.10794 29.1562C3.03394 28.7122 2.95994 28.2312 2.95994 27.7872C2.95994 27.4912 2.99694 27.2692 2.99694 27.1582C3.07094 26.2702 3.36694 25.4192 3.84794 24.6792C4.47694 23.6802 5.29094 22.8292 6.28994 22.2002C6.62294 21.9782 6.95594 21.7562 7.28894 21.5712C7.73294 23.3472 8.62094 24.9752 9.91594 26.3072C11.0259 27.4172 12.3209 28.3422 13.7269 29.0082C13.4679 29.4152 13.1719 29.7852 12.8759 30.1552C12.0989 30.9322 11.1369 31.5242 10.1009 31.8942ZM15.8359 29.4152C17.9079 29.4152 19.9429 29.9332 21.7929 30.9322C22.1999 31.1172 22.5329 31.4132 22.8289 31.7462C23.0139 31.9682 23.0879 32.2272 23.1249 32.4862C23.1249 32.5602 23.1249 32.6342 23.0879 32.7082C23.0139 32.8932 22.9399 33.0412 22.7919 33.1522C22.6069 33.3372 22.4219 33.4852 22.1999 33.5962C21.5339 34.0772 20.8309 34.4842 20.0909 34.8912C20.0169 34.9282 19.9799 34.9652 19.9059 35.0022C19.8689 35.0022 19.8689 35.0392 19.8319 35.0392C19.7949 35.0392 19.7579 35.0022 19.7209 35.0022C19.6469 34.9282 19.5359 34.8542 19.4619 34.7802C17.7599 33.1152 15.6879 31.8202 13.3939 31.0432C13.4679 30.9692 13.5419 30.8952 13.6159 30.8212C13.9859 30.4142 14.3559 29.9332 14.6519 29.4522C15.0219 29.4152 15.4289 29.4152 15.8359 29.4152ZM22.5329 23.3472C21.0159 23.6432 17.7599 24.5312 14.0969 27.9722C13.6899 27.7872 13.2829 27.5652 12.9129 27.3432C12.5799 27.1212 12.2839 26.9362 12.0249 26.7512C11.5439 26.3812 11.0629 25.9742 10.6559 25.5302C9.76794 24.6052 9.06494 23.4952 8.62094 22.3112C8.47294 21.9412 8.36194 21.5712 8.28794 21.1642C10.8039 18.7222 12.4319 16.6502 13.4679 14.9112C14.0599 13.9492 14.5039 12.8762 14.7629 11.7662C17.3529 16.3542 21.1269 20.2022 25.6779 22.8662C24.7529 22.9402 23.7909 23.1252 22.5329 23.3472ZM31.7089 22.9402C31.3019 23.0882 30.8949 23.1622 30.4509 23.1622C29.7479 23.1252 29.0819 23.0142 28.4159 22.8662C28.1569 22.8292 27.8979 22.7922 27.6759 22.7552C27.6389 22.7182 27.5649 22.6812 27.5279 22.6442C22.0519 19.8322 17.6489 15.3552 14.9479 9.84218C14.9109 9.80518 14.9109 9.76818 14.8739 9.73118C14.8369 9.54618 14.8369 9.39818 14.7999 9.21318C14.7259 8.91718 14.6149 8.54718 14.5409 8.06618C14.4299 7.51118 14.3559 6.95618 14.3559 6.36418C14.3559 5.51318 14.5039 4.66218 14.8369 3.88518C14.9479 3.66318 15.0219 3.44118 15.1699 3.18218C19.0919 11.1002 25.0489 17.7972 32.4489 22.6072C32.2269 22.7552 31.9679 22.8662 31.7089 22.9402ZM23.8649 12.2472C23.8649 12.3582 23.8649 12.4692 23.9019 12.5802C23.9389 12.8762 24.0869 13.1352 24.2719 13.3572C24.4569 13.6162 24.7529 13.7642 25.0489 13.8382C25.1229 13.8382 25.2339 13.8752 25.3079 13.8752C25.5299 13.8752 25.7519 13.8382 25.9369 13.7272C26.0479 13.6902 26.1219 13.6532 26.2329 13.5792C26.3439 13.7642 26.4919 13.9492 26.6029 14.1712C26.6399 14.2082 26.6399 14.2452 26.6769 14.2822V14.3192V14.3562C26.6769 14.3932 26.6399 14.4302 26.6029 14.5042L25.9369 16.0952C24.3089 14.5042 22.7549 12.8392 21.3489 11.0632L22.7179 10.7672C22.8659 10.7302 23.0139 10.6932 23.1989 10.6932C23.2359 10.6932 23.2729 10.6932 23.3099 10.6932C23.3839 10.7302 23.4579 10.7302 23.5319 10.7672C23.6429 10.8412 23.7169 10.9152 23.8279 10.9892C23.9019 11.0632 24.0129 11.1372 24.0869 11.2112C23.9759 11.5442 23.9019 11.8772 23.8649 12.2472ZM24.9379 12.2472C24.9379 12.1732 24.9379 12.0992 24.9749 12.0252C25.1969 12.2472 25.4189 12.5062 25.6039 12.7282C25.5669 12.7282 25.5669 12.7652 25.5299 12.7652C25.4559 12.8022 25.3819 12.8022 25.3079 12.8392H25.2709C25.1969 12.8392 25.1599 12.7652 25.0859 12.7282C25.0119 12.6542 24.9749 12.5432 24.9749 12.4322C24.9379 12.3582 24.9379 12.3212 24.9379 12.2472ZM33.7809 21.3862C33.7069 21.4972 33.6699 21.6082 33.5959 21.6822C33.5589 21.6822 33.4849 21.6452 33.4479 21.6452C33.3739 21.6452 33.3369 21.6452 33.2629 21.6822C33.2259 21.6822 33.1889 21.7192 33.1519 21.7562C30.9319 20.3132 28.8229 18.6852 26.8619 16.8722C27.1209 16.2062 27.4169 15.5772 27.6759 14.9112C27.7499 14.7262 27.8239 14.5042 27.8239 14.3192C27.8239 14.2822 27.8239 14.2452 27.8239 14.2082C27.7869 13.9862 27.7129 13.8012 27.6019 13.6162C26.8249 12.2842 25.7889 11.0632 24.5679 10.1012C24.4569 9.99018 24.3089 9.91618 24.1609 9.80518C23.9759 9.69418 23.7909 9.62018 23.6059 9.58318C23.4579 9.62018 23.3469 9.62018 23.2359 9.62018C23.0139 9.62018 22.7549 9.65718 22.5329 9.73118L20.7939 10.1382C20.7569 10.1382 20.7199 10.1752 20.6829 10.1752C18.8329 7.69618 17.2049 5.06918 15.8729 2.29418C15.8729 2.29418 15.9099 2.29418 15.9099 2.25718C16.2059 2.07218 16.5019 1.99818 16.8349 1.99818C17.3529 2.03518 17.8709 2.14618 18.3519 2.33118C19.6099 2.84918 20.7939 3.55218 21.8669 4.40318C25.7149 7.25218 30.1549 12.1732 32.5599 16.2432C32.9669 16.9092 33.2999 17.6122 33.5959 18.3152C33.8549 18.9072 34.0029 19.5732 34.0399 20.2392C34.0399 20.6462 33.9289 21.0532 33.7809 21.3862Z" fill="black"/>
</svg>
